  0
SECTION
  2
HEADER
  9
$ANGBASE
 50
0.0
  9
$ANGDIR
 70
1
  9
$AUNITS
 70
0
  9
$AUPREC
 70
0
  9
$ATTMODE
 70
1
  9
$DWGCODEPAGE
  3
ANSI_1252
  9
$TDCREATE
 40
2461218.54179493
  9
$CECOLOR
 62
256
  9
$CELTSCALE
 40
1.0
  9
$CELWEIGHT
370
-1
  9
$CLAYER
  8
0
  9
$CELTYPE
  6
ByLayer
  9
$CMLJUST
 70
0
  9
$CMLSCALE
 40
20.0
  9
$CMLSTYLE
  2
Standard
  9
$DIMSTYLE
  2
Standard
  9
$LWDISPLAY
290
0
  9
$EXTNAMES
290
1
  9
$HANDSEED
  5
D1
  9
$INSUNITS
 70
0
  9
$LUNITS
 70
2
  9
$LUPREC
 70
4
  9
$LTSCALE
 40
1.0
  9
$MEASUREMENT
 70
1
  9
$MIRRTEXT
 70
0
  9
$INSBASE
 10
0.0
 20
0.0
 30
0.0
  9
$SPLINESEGS
 70
8
  9
$PSLTSCALE
 70
1
  9
$PDMODE
 70
0
  9
$PDSIZE
 40
0.0
  9
$PLINEGEN
 70
0
  9
$SURFU
 70
6
  9
$SURFV
 70
6
  9
$TEXTSIZE
 40
2.5
  9
$TEXTSTYLE
  7
Standard
  9
$TDINDWG
 40
0.0
  9
$TDUCREATE
 40
2461218.41679493
  9
$TDUUPDATE
 40
2461218.41679493
  9
$TDUPDATE
 40
2461218.54179493
  9
$ACADVER
  1
AC1032
  0
ENDSEC
  0
SECTION
  2
CLASSES
  0
CLASS
  1
ACDBDICTIONARYWDFLT
  2
AcDbDictionaryWithDefault
  3
ObjectDBX Classes
 90
32768
 91
0
280
0
281
0
  0
CLASS
  1
ACDBPLACEHOLDER
  2
AcDbPlaceHolder
  3
ObjectDBX Classes
 90
0
 91
0
280
0
281
0
  0
CLASS
  1
LAYOUT
  2
AcDbLayout
  3
ObjectDBX Classes
 90
0
 91
0
280
0
281
0
  0
CLASS
  1
DICTIONARYVAR
  2
AcDbDictionaryVar
  3
ObjectDBX Classes
 90
0
 91
0
280
0
281
0
  0
CLASS
  1
TABLESTYLE
  2
AcDbTableStyle
  3
ObjectDBX Classes
 90
4095
 91
0
280
0
281
0
  0
CLASS
  1
MATERIAL
  2
AcDbMaterial
  3
ObjectDBX Classes
 90
1153
 91
0
280
0
281
0
  0
CLASS
  1
VISUALSTYLE
  2
AcDbVisualStyle
  3
ObjectDBX Classes
 90
4095
 91
0
280
0
281
0
  0
CLASS
  1
SCALE
  2
AcDbScale
  3
ObjectDBX Classes
 90
1153
 91
0
280
0
281
0
  0
CLASS
  1
MLEADERSTYLE
  2
AcDbMLeaderStyle
  3
ObjectDBX Classes
 90
4095
 91
0
280
0
281
0
  0
CLASS
  1
CELLSTYLEMAP
  2
AcDbCellStyleMap
  3
ObjectDBX Classes
 90
1152
 91
0
280
0
281
0
  0
CLASS
  1
EXACXREFPANELOBJECT
  2
ExAcXREFPanelObject
  3
ObjectDBX Classes
 90
1025
 91
0
280
0
281
0
  0
CLASS
  1
NPOCOLLECTION
  2
AcDbImpNonPersistentObjectsCollection
  3
ObjectDBX Classes
 90
1153
 91
0
280
0
281
0
  0
CLASS
  1
LAYER_INDEX
  2
AcDbLayerIndex
  3
ObjectDBX Classes
 90
0
 91
0
280
0
281
0
  0
CLASS
  1
SPATIAL_INDEX
  2
AcDbSpatialIndex
  3
ObjectDBX Classes
 90
0
 91
0
280
0
281
0
  0
CLASS
  1
IDBUFFER
  2
AcDbIdBuffer
  3
ObjectDBX Classes
 90
32768
 91
0
280
0
281
0
  0
CLASS
  1
ACDBSECTIONVIEWSTYLE
  2
AcDbSectionViewStyle
  3
ObjectDBX Classes
 90
1025
 91
0
280
0
281
0
  0
CLASS
  1
ACDBDETAILVIEWSTYLE
  2
AcDbDetailViewStyle
  3
ObjectDBX Classes
 90
1025
 91
0
280
0
281
0
  0
CLASS
  1
MESH
  2
AcDbSubDMesh
  3
ObjectDBX Classes
 90
0
 91
0
280
0
281
1
  0
CLASS
  1
SORTENTSTABLE
  2
AcDbSortentsTable
  3
ObjectDBX Classes
 90
0
 91
0
280
0
281
0
  0
CLASS
  1
ACDB_TEXTOBJECTCONTEXTDATA_CLASS
  2
AcDbTextObjectContextData
  3
ObjectDBX Classes
 90
1153
 91
0
280
0
281
0
  0
CLASS
  1
WIPEOUT
  2
AcDbWipeout
  3
WipeOut
 90
32895
 91
0
280
0
281
1
  0
CLASS
  1
WIPEOUTVARIABLES
  2
AcDbWipeoutVariables
  3
WipeOut
 90
32768
 91
0
280
0
281
0
  0
CLASS
  1
DIMASSOC
  2
AcDbDimAssoc
  3
AcDbDimAssoc
 90
0
 91
0
280
0
281
0
  0
CLASS
  1
ACAD_TABLE
  2
AcDbTable
  3
ObjectDBX Classes
 90
1025
 91
0
280
0
281
1
  0
CLASS
  1
TABLECONTENT
  2
AcDbTableContent
  3
ObjectDBX Classes
 90
1152
 91
0
280
0
281
0
  0
CLASS
  1
TABLEGEOMETRY
  2
AcDbTableGeometry
  3
ObjectDBX Classes
 90
1152
 91
0
280
0
281
0
  0
CLASS
  1
IMAGE
  2
AcDbRasterImage
  3
ISM
 90
32895
 91
0
280
0
281
1
  0
CLASS
  1
IMAGEDEF
  2
AcDbRasterImageDef
  3
ISM
 90
0
 91
0
280
0
281
0
  0
CLASS
  1
IMAGEDEF_REACTOR
  2
AcDbRasterImageDefReactor
  3
ISM
 90
1
 91
0
280
0
281
0
  0
CLASS
  1
DBCOLOR
  2
AcDbColor
  3
ObjectDBX Classes
 90
0
 91
0
280
0
281
0
  0
CLASS
  1
GEODATA
  2
AcDbGeoData
  3
ObjectDBX Classes
 90
4095
 91
0
280
0
281
0
  0
CLASS
  1
MULTILEADER
  2
AcDbMLeader
  3
ObjectDBX Classes
 90
1025
 91
0
280
0
281
0
  0
CLASS
  1
PDFUNDERLAY
  2
AcDbPdfReference
  3
ObjectDBX Classes
 90
4095
 91
0
280
0
281
1
  0
CLASS
  1
PDFDEFINITION
  2
AcDbPdfDefinition
  3
ObjectDBX Classes
 90
1153
 91
0
280
0
281
0
  0
CLASS
  1
RASTERVARIABLES
  2
AcDbRasterVariables
  3
ISM
 90
0
 91
0
280
0
281
0
  0
CLASS
  1
SPATIAL_FILTER
  2
AcDbSpatialFilter
  3
ObjectDBX Classes
 90
0
 91
0
280
0
281
0
  0
CLASS
  1
ACDB_MLEADEROBJECTCONTEXTDATA_CLASS
  2
AcDbMLeaderObjectContextData
  3
ObjectDBX Classes
 90
1025
 91
0
280
0
281
0
  0
CLASS
  1
PLOTSETTINGS
  2
AcDbPlotSettings
  3
ObjectDBX Classes
 90
0
 91
0
280
0
281
0
  0
CLASS
  1
FIELD
  2
AcDbField
  3
ObjectDBX Classes
 90
1152
 91
0
280
0
281
0
  0
CLASS
  1
FIELDLIST
  2
AcDbFieldList
  3
ObjectDBX Classes
 90
1152
 91
0
280
0
281
0
  0
CLASS
  1
ACDB_MTEXTATTRIBUTEOBJECTCONTEXTDATA_CLASS
  2
AcDbMTextAttributeObjectContextData
  3
ObjectDBX Classes
 90
1153
 91
0
280
0
281
0
  0
CLASS
  1
ACDB_BLKREFOBJECTCONTEXTDATA_CLASS
  2
AcDbBlkRefObjectContextData
  3
ObjectDBX Classes
 90
1153
 91
0
280
0
281
0
  0
ENDSEC
  0
SECTION
  2
TABLES
  0
TABLE
  2
VPORT
  5
8
330
0
100
AcDbSymbolTable
 70
1
  0
VPORT
  5
3E
330
8
100
AcDbSymbolTableRecord
100
AcDbViewportTableRecord
  2
*Active
 70
0
 10
0.0
 20
0.0
 11
1.0
 21
1.0
 12
0.0
 22
0.0
 13
0.0
 23
0.0
 14
0.5
 24
0.5
 15
10.0
 25
10.0
 16
0.0
 26
0.0
 36
1.0
 17
0.0
 27
0.0
 37
0.0
 40
10.0
 41
1.0
 75
0
 76
1
  0
ENDTAB
  0
TABLE
  2
LTYPE
  5
5
330
0
100
AcDbSymbolTable
 70
3
  0
LTYPE
  5
2B
330
5
100
AcDbSymbolTableRecord
100
AcDbLinetypeTableRecord
  2
ByLayer
 70
0
 72
65
 73
0
 40
0.0
  0
LTYPE
  5
3A
330
5
100
AcDbSymbolTableRecord
100
AcDbLinetypeTableRecord
  2
ByBlock
 70
0
 72
65
 73
0
 40
0.0
  0
LTYPE
  5
3B
330
5
100
AcDbSymbolTableRecord
100
AcDbLinetypeTableRecord
  2
Continuous
 70
0
 72
65
 73
0
 40
0.0
  0
ENDTAB
  0
TABLE
  2
LAYER
  5
2
330
0
100
AcDbSymbolTable
 70
1
  0
LAYER
  5
3C
330
2
100
AcDbSymbolTableRecord
100
AcDbLayerTableRecord
  2
0
 70
0
 62
7
  6
Continuous
290
1
370
-3
390
0
  0
ENDTAB
  0
TABLE
  2
STYLE
  5
4
330
0
100
AcDbSymbolTable
 70
1
  0
STYLE
  5
2D
330
4
100
AcDbSymbolTableRecord
100
AcDbTextStyleTableRecord
  2
Standard
 70
0
 40
0.0
 41
1.0
 42
0.0
 50
0.0
 71
0
  0
ENDTAB
  0
TABLE
  2
VIEW
  5
6
330
0
100
AcDbSymbolTable
 70
0
  0
ENDTAB
  0
TABLE
  2
UCS
  5
7
330
0
100
AcDbSymbolTable
 70
0
  0
ENDTAB
  0
TABLE
  2
APPID
  5
9
330
0
100
AcDbSymbolTable
 70
1
  0
APPID
  5
39
330
9
100
AcDbSymbolTableRecord
100
AcDbRegAppTableRecord
  2
ACAD
 70
0
  0
ENDTAB
  0
TABLE
  2
DIMSTYLE
  5
3
330
0
100
AcDbSymbolTable
 70
1
100
AcDbDimStyleTable
  0
DIMSTYLE
105
3D
330
3
100
AcDbSymbolTableRecord
100
AcDbDimStyleTableRecord
  2
Standard
 70
0
  3
<>
  4
[]
 40
1.0
 41
0.18
 42
0.625
 43
3.75
 44
1.25
 45
0.0
 46
0.0
 47
0.0
 48
0.0
 49
1.0
 50
45.0
 70
0
 90
0
140
0.18
141
0.09
142
0.0
143
25.4
144
1.0
145
0.0
146
1.0
147
0.625
148
0.0
 71
0
 72
0
 73
0
 74
0
 75
0
 76
0
 77
1
 78
8
 79
0
170
0
171
3
172
0
173
0
174
0
175
0
176
0
177
0
178
0
179
0
271
2
272
2
273
2
274
3
275
0
276
0
277
2
278
46
279
0
280
0
281
0
282
0
283
0
284
8
285
0
286
0
287
0
288
0
289
3
290
0
340
2D
371
-2
372
-2
  0
ENDTAB
  0
TABLE
  2
BLOCK_RECORD
  5
1
330
0
100
AcDbSymbolTable
 70
2
  0
BLOCK_RECORD
  5
40
330
1
100
AcDbSymbolTableRecord
100
AcDbBlockTableRecord
  2
*Model_Space
 70
0
340
3F
 70
0
280
0
281
1
  0
BLOCK_RECORD
  5
44
330
1
100
AcDbSymbolTableRecord
100
AcDbBlockTableRecord
  2
*Paper_Space
 70
0
340
43
 70
0
280
0
281
1
  0
ENDTAB
  0
ENDSEC
  0
SECTION
  2
BLOCKS
  0
BLOCK
  5
41
330
40
100
AcDbEntity
  8
0
  6
ByLayer
 62
256
 48
1.0
 60
0
 67
0
370
-1
100
AcDbBlockBegin
  2
*Model_Space
 70
0
 10
0.0
 20
0.0
 30
0.0
  3
*Model_Space
  0
ENDBLK
  5
42
330
40
100
AcDbEntity
  8
0
100
AcDbBlockEnd
  0
BLOCK
  5
45
330
44
100
AcDbEntity
  8
0
  6
ByLayer
 62
256
 48
1.0
 60
0
 67
1
370
-1
100
AcDbBlockBegin
  2
*Paper_Space
 70
0
 10
0.0
 20
0.0
 30
0.0
  3
*Paper_Space
  0
ENDBLK
  5
46
330
44
100
AcDbEntity
  8
0
100
AcDbBlockEnd
  0
ENDSEC
  0
SECTION
  2
ENTITIES
  0
LINE
  5
48
330
40
100
AcDbEntity
  8
0
  6
ByLayer
 62
256
 48
1.0
 60
0
 67
0
370
-1
100
AcDbLine
 10
0.0
 20
0.0
 30
0.0
 11
552.0
 21
0.0
 31
0.0
 39
0.0
210
0.0
220
0.0
230
1.0
  0
LINE
  5
49
330
40
100
AcDbEntity
  8
0
  6
ByLayer
 62
256
 48
1.0
 60
0
 67
0
370
-1
100
AcDbLine
 10
552.0
 20
0.0
 30
0.0
 11
552.0
 21
630.0
 31
0.0
 39
0.0
210
0.0
220
0.0
230
1.0
  0
LINE
  5
4A
330
40
100
AcDbEntity
  8
0
  6
ByLayer
 62
256
 48
1.0
 60
0
 67
0
370
-1
100
AcDbLine
 10
552.0
 20
630.0
 30
0.0
 11
0.0
 21
630.0
 31
0.0
 39
0.0
210
0.0
220
0.0
230
1.0
  0
LINE
  5
4B
330
40
100
AcDbEntity
  8
0
  6
ByLayer
 62
256
 48
1.0
 60
0
 67
0
370
-1
100
AcDbLine
 10
0.0
 20
630.0
 30
0.0
 11
0.0
 21
0.0
 31
0.0
 39
0.0
210
0.0
220
0.0
230
1.0
  0
LINE
  5
4C
330
40
100
AcDbEntity
  8
0
  6
ByLayer
 62
256
 48
1.0
 60
0
 67
0
370
-1
100
AcDbLine
 10
18.0
 20
18.0
 30
0.0
 11
534.0
 21
18.0
 31
0.0
 39
0.0
210
0.0
220
0.0
230
1.0
  0
LINE
  5
4D
330
40
100
AcDbEntity
  8
0
  6
ByLayer
 62
256
 48
1.0
 60
0
 67
0
370
-1
100
AcDbLine
 10
534.0
 20
18.0
 30
0.0
 11
534.0
 21
612.0
 31
0.0
 39
0.0
210
0.0
220
0.0
230
1.0
  0
LINE
  5
4E
330
40
100
AcDbEntity
  8
0
  6
ByLayer
 62
256
 48
1.0
 60
0
 67
0
370
-1
100
AcDbLine
 10
534.0
 20
612.0
 30
0.0
 11
18.0
 21
612.0
 31
0.0
 39
0.0
210
0.0
220
0.0
230
1.0
  0
LINE
  5
4F
330
40
100
AcDbEntity
  8
0
  6
ByLayer
 62
256
 48
1.0
 60
0
 67
0
370
-1
100
AcDbLine
 10
18.0
 20
612.0
 30
0.0
 11
18.0
 21
18.0
 31
0.0
 39
0.0
210
0.0
220
0.0
230
1.0
  0
CIRCLE
  5
50
330
40
100
AcDbEntity
  8
0
  6
ByLayer
 62
256
 48
1.0
 60
0
 67
0
370
-1
100
AcDbCircle
 10
509.0
 20
315.0
 30
0.0
 39
0.0
 40
9.0
210
0.0
220
0.0
230
1.0
  0
LINE
  5
51
330
40
100
AcDbEntity
  8
0
  6
ByLayer
 62
256
 48
1.0
 60
0
 67
0
370
-1
100
AcDbLine
 10
60.0
 20
540.0
 30
0.0
 11
492.0
 21
540.0
 31
0.0
 39
0.0
210
0.0
220
0.0
230
1.0
  0
LINE
  5
52
330
40
100
AcDbEntity
  8
0
  6
ByLayer
 62
256
 48
1.0
 60
0
 67
0
370
-1
100
AcDbLine
 10
60.0
 20
538.0
 30
0.0
 11
492.0
 21
538.0
 31
0.0
 39
0.0
210
0.0
220
0.0
230
1.0
  0
LINE
  5
53
330
40
100
AcDbEntity
  8
0
  6
ByLayer
 62
256
 48
1.0
 60
0
 67
0
370
-1
100
AcDbLine
 10
60.0
 20
380.0
 30
0.0
 11
492.0
 21
380.0
 31
0.0
 39
0.0
210
0.0
220
0.0
230
1.0
  0
LINE
  5
54
330
40
100
AcDbEntity
  8
0
  6
ByLayer
 62
256
 48
1.0
 60
0
 67
0
370
-1
100
AcDbLine
 10
60.0
 20
378.0
 30
0.0
 11
492.0
 21
378.0
 31
0.0
 39
0.0
210
0.0
220
0.0
230
1.0
  0
LINE
  5
55
330
40
100
AcDbEntity
  8
0
  6
ByLayer
 62
256
 48
1.0
 60
0
 67
0
370
-1
100
AcDbLine
 10
60.0
 20
220.0
 30
0.0
 11
492.0
 21
220.0
 31
0.0
 39
0.0
210
0.0
220
0.0
230
1.0
  0
LINE
  5
56
330
40
100
AcDbEntity
  8
0
  6
ByLayer
 62
256
 48
1.0
 60
0
 67
0
370
-1
100
AcDbLine
 10
60.0
 20
218.0
 30
0.0
 11
492.0
 21
218.0
 31
0.0
 39
0.0
210
0.0
220
0.0
230
1.0
  0
LINE
  5
57
330
40
100
AcDbEntity
  8
0
  6
ByLayer
 62
256
 48
1.0
 60
0
 67
0
370
-1
100
AcDbLine
 10
60.0
 20
455.0
 30
0.0
 11
78.0
 21
455.0
 31
0.0
 39
0.0
210
0.0
220
0.0
230
1.0
  0
LINE
  5
58
330
40
100
AcDbEntity
  8
0
  6
ByLayer
 62
256
 48
1.0
 60
0
 67
0
370
-1
100
AcDbLine
 10
78.0
 20
455.0
 30
0.0
 11
78.0
 21
540.0
 31
0.0
 39
0.0
210
0.0
220
0.0
230
1.0
  0
LINE
  5
59
330
40
100
AcDbEntity
  8
0
  6
ByLayer
 62
256
 48
1.0
 60
0
 67
0
370
-1
100
AcDbLine
 10
78.0
 20
540.0
 30
0.0
 11
60.0
 21
540.0
 31
0.0
 39
0.0
210
0.0
220
0.0
230
1.0
  0
LINE
  5
5A
330
40
100
AcDbEntity
  8
0
  6
ByLayer
 62
256
 48
1.0
 60
0
 67
0
370
-1
100
AcDbLine
 10
60.0
 20
540.0
 30
0.0
 11
60.0
 21
455.0
 31
0.0
 39
0.0
210
0.0
220
0.0
230
1.0
  0
TEXT
  5
5B
330
40
100
AcDbEntity
  8
0
  6
ByLayer
 62
256
 48
1.0
 60
0
 67
0
370
-1
100
AcDbText
  1
1x16A
 10
62.0
 20
493.5
 30
0.0
 40
9.0
  7
Standard
 11
0.0
 21
0.0
 31
0.0
210
0.0
220
0.0
230
1.0
100
AcDbText
  0
LINE
  5
5C
330
40
100
AcDbEntity
  8
0
  6
ByLayer
 62
256
 48
1.0
 60
0
 67
0
370
-1
100
AcDbLine
 10
78.0
 20
455.0
 30
0.0
 11
132.0
 21
455.0
 31
0.0
 39
0.0
210
0.0
220
0.0
230
1.0
  0
LINE
  5
5D
330
40
100
AcDbEntity
  8
0
  6
ByLayer
 62
256
 48
1.0
 60
0
 67
0
370
-1
100
AcDbLine
 10
132.0
 20
455.0
 30
0.0
 11
132.0
 21
540.0
 31
0.0
 39
0.0
210
0.0
220
0.0
230
1.0
  0
LINE
  5
5E
330
40
100
AcDbEntity
  8
0
  6
ByLayer
 62
256
 48
1.0
 60
0
 67
0
370
-1
100
AcDbLine
 10
132.0
 20
540.0
 30
0.0
 11
78.0
 21
540.0
 31
0.0
 39
0.0
210
0.0
220
0.0
230
1.0
  0
LINE
  5
5F
330
40
100
AcDbEntity
  8
0
  6
ByLayer
 62
256
 48
1.0
 60
0
 67
0
370
-1
100
AcDbLine
 10
78.0
 20
540.0
 30
0.0
 11
78.0
 21
455.0
 31
0.0
 39
0.0
210
0.0
220
0.0
230
1.0
  0
TEXT
  5
60
330
40
100
AcDbEntity
  8
0
  6
ByLayer
 62
256
 48
1.0
 60
0
 67
0
370
-1
100
AcDbText
  1
2x25A
 10
80.0
 20
493.5
 30
0.0
 40
9.0
  7
Standard
 11
0.0
 21
0.0
 31
0.0
210
0.0
220
0.0
230
1.0
100
AcDbText
  0
LINE
  5
61
330
40
100
AcDbEntity
  8
0
  6
ByLayer
 62
256
 48
1.0
 60
0
 67
0
370
-1
100
AcDbLine
 10
132.0
 20
455.0
 30
0.0
 11
150.0
 21
455.0
 31
0.0
 39
0.0
210
0.0
220
0.0
230
1.0
  0
LINE
  5
62
330
40
100
AcDbEntity
  8
0
  6
ByLayer
 62
256
 48
1.0
 60
0
 67
0
370
-1
100
AcDbLine
 10
150.0
 20
455.0
 30
0.0
 11
150.0
 21
540.0
 31
0.0
 39
0.0
210
0.0
220
0.0
230
1.0
  0
LINE
  5
63
330
40
100
AcDbEntity
  8
0
  6
ByLayer
 62
256
 48
1.0
 60
0
 67
0
370
-1
100
AcDbLine
 10
150.0
 20
540.0
 30
0.0
 11
132.0
 21
540.0
 31
0.0
 39
0.0
210
0.0
220
0.0
230
1.0
  0
LINE
  5
64
330
40
100
AcDbEntity
  8
0
  6
ByLayer
 62
256
 48
1.0
 60
0
 67
0
370
-1
100
AcDbLine
 10
132.0
 20
540.0
 30
0.0
 11
132.0
 21
455.0
 31
0.0
 39
0.0
210
0.0
220
0.0
230
1.0
  0
TEXT
  5
65
330
40
100
AcDbEntity
  8
0
  6
ByLayer
 62
256
 48
1.0
 60
0
 67
0
370
-1
100
AcDbText
  1
1x10A
 10
134.0
 20
493.5
 30
0.0
 40
9.0
  7
Standard
 11
0.0
 21
0.0
 31
0.0
210
0.0
220
0.0
230
1.0
100
AcDbText
  0
LINE
  5
66
330
40
100
AcDbEntity
  8
0
  6
ByLayer
 62
256
 48
1.0
 60
0
 67
0
370
-1
100
AcDbLine
 10
150.0
 20
455.0
 30
0.0
 11
204.0
 21
455.0
 31
0.0
 39
0.0
210
0.0
220
0.0
230
1.0
  0
LINE
  5
67
330
40
100
AcDbEntity
  8
0
  6
ByLayer
 62
256
 48
1.0
 60
0
 67
0
370
-1
100
AcDbLine
 10
204.0
 20
455.0
 30
0.0
 11
204.0
 21
540.0
 31
0.0
 39
0.0
210
0.0
220
0.0
230
1.0
  0
LINE
  5
68
330
40
100
AcDbEntity
  8
0
  6
ByLayer
 62
256
 48
1.0
 60
0
 67
0
370
-1
100
AcDbLine
 10
204.0
 20
540.0
 30
0.0
 11
150.0
 21
540.0
 31
0.0
 39
0.0
210
0.0
220
0.0
230
1.0
  0
LINE
  5
69
330
40
100
AcDbEntity
  8
0
  6
ByLayer
 62
256
 48
1.0
 60
0
 67
0
370
-1
100
AcDbLine
 10
150.0
 20
540.0
 30
0.0
 11
150.0
 21
455.0
 31
0.0
 39
0.0
210
0.0
220
0.0
230
1.0
  0
TEXT
  5
6A
330
40
100
AcDbEntity
  8
0
  6
ByLayer
 62
256
 48
1.0
 60
0
 67
0
370
-1
100
AcDbText
  1
3x40A
 10
152.0
 20
493.5
 30
0.0
 40
9.0
  7
Standard
 11
0.0
 21
0.0
 31
0.0
210
0.0
220
0.0
230
1.0
100
AcDbText
  0
LINE
  5
6B
330
40
100
AcDbEntity
  8
0
  6
ByLayer
 62
256
 48
1.0
 60
0
 67
0
370
-1
100
AcDbLine
 10
204.0
 20
455.0
 30
0.0
 11
258.0
 21
455.0
 31
0.0
 39
0.0
210
0.0
220
0.0
230
1.0
  0
LINE
  5
6C
330
40
100
AcDbEntity
  8
0
  6
ByLayer
 62
256
 48
1.0
 60
0
 67
0
370
-1
100
AcDbLine
 10
258.0
 20
455.0
 30
0.0
 11
258.0
 21
540.0
 31
0.0
 39
0.0
210
0.0
220
0.0
230
1.0
  0
LINE
  5
6D
330
40
100
AcDbEntity
  8
0
  6
ByLayer
 62
256
 48
1.0
 60
0
 67
0
370
-1
100
AcDbLine
 10
258.0
 20
540.0
 30
0.0
 11
204.0
 21
540.0
 31
0.0
 39
0.0
210
0.0
220
0.0
230
1.0
  0
LINE
  5
6E
330
40
100
AcDbEntity
  8
0
  6
ByLayer
 62
256
 48
1.0
 60
0
 67
0
370
-1
100
AcDbLine
 10
204.0
 20
540.0
 30
0.0
 11
204.0
 21
455.0
 31
0.0
 39
0.0
210
0.0
220
0.0
230
1.0
  0
TEXT
  5
6F
330
40
100
AcDbEntity
  8
0
  6
ByLayer
 62
256
 48
1.0
 60
0
 67
0
370
-1
100
AcDbText
  1
3x32A
 10
206.0
 20
493.5
 30
0.0
 40
9.0
  7
Standard
 11
0.0
 21
0.0
 31
0.0
210
0.0
220
0.0
230
1.0
100
AcDbText
  0
LINE
  5
70
330
40
100
AcDbEntity
  8
0
  6
ByLayer
 62
256
 48
1.0
 60
0
 67
0
370
-1
100
AcDbLine
 10
258.0
 20
455.0
 30
0.0
 11
312.0
 21
455.0
 31
0.0
 39
0.0
210
0.0
220
0.0
230
1.0
  0
LINE
  5
71
330
40
100
AcDbEntity
  8
0
  6
ByLayer
 62
256
 48
1.0
 60
0
 67
0
370
-1
100
AcDbLine
 10
312.0
 20
455.0
 30
0.0
 11
312.0
 21
540.0
 31
0.0
 39
0.0
210
0.0
220
0.0
230
1.0
  0
LINE
  5
72
330
40
100
AcDbEntity
  8
0
  6
ByLayer
 62
256
 48
1.0
 60
0
 67
0
370
-1
100
AcDbLine
 10
312.0
 20
540.0
 30
0.0
 11
258.0
 21
540.0
 31
0.0
 39
0.0
210
0.0
220
0.0
230
1.0
  0
LINE
  5
73
330
40
100
AcDbEntity
  8
0
  6
ByLayer
 62
256
 48
1.0
 60
0
 67
0
370
-1
100
AcDbLine
 10
258.0
 20
540.0
 30
0.0
 11
258.0
 21
455.0
 31
0.0
 39
0.0
210
0.0
220
0.0
230
1.0
  0
TEXT
  5
74
330
40
100
AcDbEntity
  8
0
  6
ByLayer
 62
256
 48
1.0
 60
0
 67
0
370
-1
100
AcDbText
  1
3x63A
 10
260.0
 20
493.5
 30
0.0
 40
9.0
  7
Standard
 11
0.0
 21
0.0
 31
0.0
210
0.0
220
0.0
230
1.0
100
AcDbText
  0
LINE
  5
75
330
40
100
AcDbEntity
  8
0
  6
ByLayer
 62
256
 48
1.0
 60
0
 67
0
370
-1
100
AcDbLine
 10
312.0
 20
455.0
 30
0.0
 11
330.0
 21
455.0
 31
0.0
 39
0.0
210
0.0
220
0.0
230
1.0
  0
LINE
  5
76
330
40
100
AcDbEntity
  8
0
  6
ByLayer
 62
256
 48
1.0
 60
0
 67
0
370
-1
100
AcDbLine
 10
330.0
 20
455.0
 30
0.0
 11
330.0
 21
540.0
 31
0.0
 39
0.0
210
0.0
220
0.0
230
1.0
  0
LINE
  5
77
330
40
100
AcDbEntity
  8
0
  6
ByLayer
 62
256
 48
1.0
 60
0
 67
0
370
-1
100
AcDbLine
 10
330.0
 20
540.0
 30
0.0
 11
312.0
 21
540.0
 31
0.0
 39
0.0
210
0.0
220
0.0
230
1.0
  0
LINE
  5
78
330
40
100
AcDbEntity
  8
0
  6
ByLayer
 62
256
 48
1.0
 60
0
 67
0
370
-1
100
AcDbLine
 10
312.0
 20
540.0
 30
0.0
 11
312.0
 21
455.0
 31
0.0
 39
0.0
210
0.0
220
0.0
230
1.0
  0
TEXT
  5
79
330
40
100
AcDbEntity
  8
0
  6
ByLayer
 62
256
 48
1.0
 60
0
 67
0
370
-1
100
AcDbText
  1
1x20A
 10
314.0
 20
493.5
 30
0.0
 40
9.0
  7
Standard
 11
0.0
 21
0.0
 31
0.0
210
0.0
220
0.0
230
1.0
100
AcDbText
  0
LINE
  5
7A
330
40
100
AcDbEntity
  8
0
  6
ByLayer
 62
256
 48
1.0
 60
0
 67
0
370
-1
100
AcDbLine
 10
330.0
 20
455.0
 30
0.0
 11
420.0
 21
455.0
 31
0.0
 39
0.0
210
0.0
220
0.0
230
1.0
  0
LINE
  5
7B
330
40
100
AcDbEntity
  8
0
  6
ByLayer
 62
256
 48
1.0
 60
0
 67
0
370
-1
100
AcDbLine
 10
420.0
 20
455.0
 30
0.0
 11
420.0
 21
540.0
 31
0.0
 39
0.0
210
0.0
220
0.0
230
1.0
  0
LINE
  5
7C
330
40
100
AcDbEntity
  8
0
  6
ByLayer
 62
256
 48
1.0
 60
0
 67
0
370
-1
100
AcDbLine
 10
420.0
 20
540.0
 30
0.0
 11
330.0
 21
540.0
 31
0.0
 39
0.0
210
0.0
220
0.0
230
1.0
  0
LINE
  5
7D
330
40
100
AcDbEntity
  8
0
  6
ByLayer
 62
256
 48
1.0
 60
0
 67
0
370
-1
100
AcDbLine
 10
330.0
 20
540.0
 30
0.0
 11
330.0
 21
455.0
 31
0.0
 39
0.0
210
0.0
220
0.0
230
1.0
  0
TEXT
  5
7E
330
40
100
AcDbEntity
  8
0
  6
ByLayer
 62
256
 48
1.0
 60
0
 67
0
370
-1
100
AcDbText
  1
4x40A
 10
332.0
 20
493.5
 30
0.0
 40
9.0
  7
Standard
 11
0.0
 21
0.0
 31
0.0
210
0.0
220
0.0
230
1.0
100
AcDbText
  0
LINE
  5
7F
330
40
100
AcDbEntity
  8
0
  6
ByLayer
 62
256
 48
1.0
 60
0
 67
0
370
-1
100
AcDbLine
 10
420.0
 20
455.0
 30
0.0
 11
474.0
 21
455.0
 31
0.0
 39
0.0
210
0.0
220
0.0
230
1.0
  0
LINE
  5
80
330
40
100
AcDbEntity
  8
0
  6
ByLayer
 62
256
 48
1.0
 60
0
 67
0
370
-1
100
AcDbLine
 10
474.0
 20
455.0
 30
0.0
 11
474.0
 21
540.0
 31
0.0
 39
0.0
210
0.0
220
0.0
230
1.0
  0
LINE
  5
81
330
40
100
AcDbEntity
  8
0
  6
ByLayer
 62
256
 48
1.0
 60
0
 67
0
370
-1
100
AcDbLine
 10
474.0
 20
540.0
 30
0.0
 11
420.0
 21
540.0
 31
0.0
 39
0.0
210
0.0
220
0.0
230
1.0
  0
LINE
  5
82
330
40
100
AcDbEntity
  8
0
  6
ByLayer
 62
256
 48
1.0
 60
0
 67
0
370
-1
100
AcDbLine
 10
420.0
 20
540.0
 30
0.0
 11
420.0
 21
455.0
 31
0.0
 39
0.0
210
0.0
220
0.0
230
1.0
  0
TEXT
  5
83
330
40
100
AcDbEntity
  8
0
  6
ByLayer
 62
256
 48
1.0
 60
0
 67
0
370
-1
100
AcDbText
  1
3x80A
 10
422.0
 20
493.5
 30
0.0
 40
9.0
  7
Standard
 11
0.0
 21
0.0
 31
0.0
210
0.0
220
0.0
230
1.0
100
AcDbText
  0
LINE
  5
84
330
40
100
AcDbEntity
  8
0
  6
ByLayer
 62
256
 48
1.0
 60
0
 67
0
370
-1
100
AcDbLine
 10
60.0
 20
295.0
 30
0.0
 11
114.0
 21
295.0
 31
0.0
 39
0.0
210
0.0
220
0.0
230
1.0
  0
LINE
  5
85
330
40
100
AcDbEntity
  8
0
  6
ByLayer
 62
256
 48
1.0
 60
0
 67
0
370
-1
100
AcDbLine
 10
114.0
 20
295.0
 30
0.0
 11
114.0
 21
380.0
 31
0.0
 39
0.0
210
0.0
220
0.0
230
1.0
  0
LINE
  5
86
330
40
100
AcDbEntity
  8
0
  6
ByLayer
 62
256
 48
1.0
 60
0
 67
0
370
-1
100
AcDbLine
 10
114.0
 20
380.0
 30
0.0
 11
60.0
 21
380.0
 31
0.0
 39
0.0
210
0.0
220
0.0
230
1.0
  0
LINE
  5
87
330
40
100
AcDbEntity
  8
0
  6
ByLayer
 62
256
 48
1.0
 60
0
 67
0
370
-1
100
AcDbLine
 10
60.0
 20
380.0
 30
0.0
 11
60.0
 21
295.0
 31
0.0
 39
0.0
210
0.0
220
0.0
230
1.0
  0
TEXT
  5
88
330
40
100
AcDbEntity
  8
0
  6
ByLayer
 62
256
 48
1.0
 60
0
 67
0
370
-1
100
AcDbText
  1
3x100A
 10
62.0
 20
333.5
 30
0.0
 40
9.0
  7
Standard
 11
0.0
 21
0.0
 31
0.0
210
0.0
220
0.0
230
1.0
100
AcDbText
  0
LINE
  5
89
330
40
100
AcDbEntity
  8
0
  6
ByLayer
 62
256
 48
1.0
 60
0
 67
0
370
-1
100
AcDbLine
 10
114.0
 20
295.0
 30
0.0
 11
168.0
 21
295.0
 31
0.0
 39
0.0
210
0.0
220
0.0
230
1.0
  0
LINE
  5
8A
330
40
100
AcDbEntity
  8
0
  6
ByLayer
 62
256
 48
1.0
 60
0
 67
0
370
-1
100
AcDbLine
 10
168.0
 20
295.0
 30
0.0
 11
168.0
 21
380.0
 31
0.0
 39
0.0
210
0.0
220
0.0
230
1.0
  0
LINE
  5
8B
330
40
100
AcDbEntity
  8
0
  6
ByLayer
 62
256
 48
1.0
 60
0
 67
0
370
-1
100
AcDbLine
 10
168.0
 20
380.0
 30
0.0
 11
114.0
 21
380.0
 31
0.0
 39
0.0
210
0.0
220
0.0
230
1.0
  0
LINE
  5
8C
330
40
100
AcDbEntity
  8
0
  6
ByLayer
 62
256
 48
1.0
 60
0
 67
0
370
-1
100
AcDbLine
 10
114.0
 20
380.0
 30
0.0
 11
114.0
 21
295.0
 31
0.0
 39
0.0
210
0.0
220
0.0
230
1.0
  0
TEXT
  5
8D
330
40
100
AcDbEntity
  8
0
  6
ByLayer
 62
256
 48
1.0
 60
0
 67
0
370
-1
100
AcDbText
  1
3x125A
 10
116.0
 20
333.5
 30
0.0
 40
9.0
  7
Standard
 11
0.0
 21
0.0
 31
0.0
210
0.0
220
0.0
230
1.0
100
AcDbText
  0
LINE
  5
8E
330
40
100
AcDbEntity
  8
0
  6
ByLayer
 62
256
 48
1.0
 60
0
 67
0
370
-1
100
AcDbLine
 10
168.0
 20
295.0
 30
0.0
 11
240.0
 21
295.0
 31
0.0
 39
0.0
210
0.0
220
0.0
230
1.0
  0
LINE
  5
8F
330
40
100
AcDbEntity
  8
0
  6
ByLayer
 62
256
 48
1.0
 60
0
 67
0
370
-1
100
AcDbLine
 10
240.0
 20
295.0
 30
0.0
 11
240.0
 21
380.0
 31
0.0
 39
0.0
210
0.0
220
0.0
230
1.0
  0
LINE
  5
90
330
40
100
AcDbEntity
  8
0
  6
ByLayer
 62
256
 48
1.0
 60
0
 67
0
370
-1
100
AcDbLine
 10
240.0
 20
380.0
 30
0.0
 11
168.0
 21
380.0
 31
0.0
 39
0.0
210
0.0
220
0.0
230
1.0
  0
LINE
  5
91
330
40
100
AcDbEntity
  8
0
  6
ByLayer
 62
256
 48
1.0
 60
0
 67
0
370
-1
100
AcDbLine
 10
168.0
 20
380.0
 30
0.0
 11
168.0
 21
295.0
 31
0.0
 39
0.0
210
0.0
220
0.0
230
1.0
  0
TEXT
  5
92
330
40
100
AcDbEntity
  8
0
  6
ByLayer
 62
256
 48
1.0
 60
0
 67
0
370
-1
100
AcDbText
  1
4x125A
 10
170.0
 20
333.5
 30
0.0
 40
9.0
  7
Standard
 11
0.0
 21
0.0
 31
0.0
210
0.0
220
0.0
230
1.0
100
AcDbText
  0
LINE
  5
93
330
40
100
AcDbEntity
  8
0
  6
ByLayer
 62
256
 48
1.0
 60
0
 67
0
370
-1
100
AcDbLine
 10
240.0
 20
295.0
 30
0.0
 11
294.0
 21
295.0
 31
0.0
 39
0.0
210
0.0
220
0.0
230
1.0
  0
LINE
  5
94
330
40
100
AcDbEntity
  8
0
  6
ByLayer
 62
256
 48
1.0
 60
0
 67
0
370
-1
100
AcDbLine
 10
294.0
 20
295.0
 30
0.0
 11
294.0
 21
380.0
 31
0.0
 39
0.0
210
0.0
220
0.0
230
1.0
  0
LINE
  5
95
330
40
100
AcDbEntity
  8
0
  6
ByLayer
 62
256
 48
1.0
 60
0
 67
0
370
-1
100
AcDbLine
 10
294.0
 20
380.0
 30
0.0
 11
240.0
 21
380.0
 31
0.0
 39
0.0
210
0.0
220
0.0
230
1.0
  0
LINE
  5
96
330
40
100
AcDbEntity
  8
0
  6
ByLayer
 62
256
 48
1.0
 60
0
 67
0
370
-1
100
AcDbLine
 10
240.0
 20
380.0
 30
0.0
 11
240.0
 21
295.0
 31
0.0
 39
0.0
210
0.0
220
0.0
230
1.0
  0
TEXT
  5
97
330
40
100
AcDbEntity
  8
0
  6
ByLayer
 62
256
 48
1.0
 60
0
 67
0
370
-1
100
AcDbText
  1
3x160A
 10
242.0
 20
333.5
 30
0.0
 40
9.0
  7
Standard
 11
0.0
 21
0.0
 31
0.0
210
0.0
220
0.0
230
1.0
100
AcDbText
  0
LINE
  5
98
330
40
100
AcDbEntity
  8
0
  6
ByLayer
 62
256
 48
1.0
 60
0
 67
0
370
-1
100
AcDbLine
 10
294.0
 20
295.0
 30
0.0
 11
348.0
 21
295.0
 31
0.0
 39
0.0
210
0.0
220
0.0
230
1.0
  0
LINE
  5
99
330
40
100
AcDbEntity
  8
0
  6
ByLayer
 62
256
 48
1.0
 60
0
 67
0
370
-1
100
AcDbLine
 10
348.0
 20
295.0
 30
0.0
 11
348.0
 21
380.0
 31
0.0
 39
0.0
210
0.0
220
0.0
230
1.0
  0
LINE
  5
9A
330
40
100
AcDbEntity
  8
0
  6
ByLayer
 62
256
 48
1.0
 60
0
 67
0
370
-1
100
AcDbLine
 10
348.0
 20
380.0
 30
0.0
 11
294.0
 21
380.0
 31
0.0
 39
0.0
210
0.0
220
0.0
230
1.0
  0
LINE
  5
9B
330
40
100
AcDbEntity
  8
0
  6
ByLayer
 62
256
 48
1.0
 60
0
 67
0
370
-1
100
AcDbLine
 10
294.0
 20
380.0
 30
0.0
 11
294.0
 21
295.0
 31
0.0
 39
0.0
210
0.0
220
0.0
230
1.0
  0
TEXT
  5
9C
330
40
100
AcDbEntity
  8
0
  6
ByLayer
 62
256
 48
1.0
 60
0
 67
0
370
-1
100
AcDbText
  1
3x630A
 10
296.0
 20
333.5
 30
0.0
 40
9.0
  7
Standard
 11
0.0
 21
0.0
 31
0.0
210
0.0
220
0.0
230
1.0
100
AcDbText
  0
LINE
  5
9D
330
40
100
AcDbEntity
  8
0
  6
ByLayer
 62
256
 48
1.0
 60
0
 67
0
370
-1
100
AcDbLine
 10
348.0
 20
295.0
 30
0.0
 11
402.0
 21
295.0
 31
0.0
 39
0.0
210
0.0
220
0.0
230
1.0
  0
LINE
  5
9E
330
40
100
AcDbEntity
  8
0
  6
ByLayer
 62
256
 48
1.0
 60
0
 67
0
370
-1
100
AcDbLine
 10
402.0
 20
295.0
 30
0.0
 11
402.0
 21
380.0
 31
0.0
 39
0.0
210
0.0
220
0.0
230
1.0
  0
LINE
  5
9F
330
40
100
AcDbEntity
  8
0
  6
ByLayer
 62
256
 48
1.0
 60
0
 67
0
370
-1
100
AcDbLine
 10
402.0
 20
380.0
 30
0.0
 11
348.0
 21
380.0
 31
0.0
 39
0.0
210
0.0
220
0.0
230
1.0
  0
LINE
  5
A0
330
40
100
AcDbEntity
  8
0
  6
ByLayer
 62
256
 48
1.0
 60
0
 67
0
370
-1
100
AcDbLine
 10
348.0
 20
380.0
 30
0.0
 11
348.0
 21
295.0
 31
0.0
 39
0.0
210
0.0
220
0.0
230
1.0
  0
TEXT
  5
A1
330
40
100
AcDbEntity
  8
0
  6
ByLayer
 62
256
 48
1.0
 60
0
 67
0
370
-1
100
AcDbText
  1
3x10A
 10
350.0
 20
333.5
 30
0.0
 40
9.0
  7
Standard
 11
0.0
 21
0.0
 31
0.0
210
0.0
220
0.0
230
1.0
100
AcDbText
  0
LINE
  5
A2
330
40
100
AcDbEntity
  8
0
  6
ByLayer
 62
256
 48
1.0
 60
0
 67
0
370
-1
100
AcDbLine
 10
402.0
 20
295.0
 30
0.0
 11
420.0
 21
295.0
 31
0.0
 39
0.0
210
0.0
220
0.0
230
1.0
  0
LINE
  5
A3
330
40
100
AcDbEntity
  8
0
  6
ByLayer
 62
256
 48
1.0
 60
0
 67
0
370
-1
100
AcDbLine
 10
420.0
 20
295.0
 30
0.0
 11
420.0
 21
380.0
 31
0.0
 39
0.0
210
0.0
220
0.0
230
1.0
  0
LINE
  5
A4
330
40
100
AcDbEntity
  8
0
  6
ByLayer
 62
256
 48
1.0
 60
0
 67
0
370
-1
100
AcDbLine
 10
420.0
 20
380.0
 30
0.0
 11
402.0
 21
380.0
 31
0.0
 39
0.0
210
0.0
220
0.0
230
1.0
  0
LINE
  5
A5
330
40
100
AcDbEntity
  8
0
  6
ByLayer
 62
256
 48
1.0
 60
0
 67
0
370
-1
100
AcDbLine
 10
402.0
 20
380.0
 30
0.0
 11
402.0
 21
295.0
 31
0.0
 39
0.0
210
0.0
220
0.0
230
1.0
  0
TEXT
  5
A6
330
40
100
AcDbEntity
  8
0
  6
ByLayer
 62
256
 48
1.0
 60
0
 67
0
370
-1
100
AcDbText
  1
1x6A
 10
404.0
 20
333.5
 30
0.0
 40
9.0
  7
Standard
 11
0.0
 21
0.0
 31
0.0
210
0.0
220
0.0
230
1.0
100
AcDbText
  0
LINE
  5
A7
330
40
100
AcDbEntity
  8
0
  6
ByLayer
 62
256
 48
1.0
 60
0
 67
0
370
-1
100
AcDbLine
 10
420.0
 20
295.0
 30
0.0
 11
474.0
 21
295.0
 31
0.0
 39
0.0
210
0.0
220
0.0
230
1.0
  0
LINE
  5
A8
330
40
100
AcDbEntity
  8
0
  6
ByLayer
 62
256
 48
1.0
 60
0
 67
0
370
-1
100
AcDbLine
 10
474.0
 20
295.0
 30
0.0
 11
474.0
 21
380.0
 31
0.0
 39
0.0
210
0.0
220
0.0
230
1.0
  0
LINE
  5
A9
330
40
100
AcDbEntity
  8
0
  6
ByLayer
 62
256
 48
1.0
 60
0
 67
0
370
-1
100
AcDbLine
 10
474.0
 20
380.0
 30
0.0
 11
420.0
 21
380.0
 31
0.0
 39
0.0
210
0.0
220
0.0
230
1.0
  0
LINE
  5
AA
330
40
100
AcDbEntity
  8
0
  6
ByLayer
 62
256
 48
1.0
 60
0
 67
0
370
-1
100
AcDbLine
 10
420.0
 20
380.0
 30
0.0
 11
420.0
 21
295.0
 31
0.0
 39
0.0
210
0.0
220
0.0
230
1.0
  0
TEXT
  5
AB
330
40
100
AcDbEntity
  8
0
  6
ByLayer
 62
256
 48
1.0
 60
0
 67
0
370
-1
100
AcDbText
  1
3x25A
 10
422.0
 20
333.5
 30
0.0
 40
9.0
  7
Standard
 11
0.0
 21
0.0
 31
0.0
210
0.0
220
0.0
230
1.0
100
AcDbText
  0
LINE
  5
AC
330
40
100
AcDbEntity
  8
0
  6
ByLayer
 62
256
 48
1.0
 60
0
 67
0
370
-1
100
AcDbLine
 10
60.0
 20
135.0
 30
0.0
 11
114.0
 21
135.0
 31
0.0
 39
0.0
210
0.0
220
0.0
230
1.0
  0
LINE
  5
AD
330
40
100
AcDbEntity
  8
0
  6
ByLayer
 62
256
 48
1.0
 60
0
 67
0
370
-1
100
AcDbLine
 10
114.0
 20
135.0
 30
0.0
 11
114.0
 21
220.0
 31
0.0
 39
0.0
210
0.0
220
0.0
230
1.0
  0
LINE
  5
AE
330
40
100
AcDbEntity
  8
0
  6
ByLayer
 62
256
 48
1.0
 60
0
 67
0
370
-1
100
AcDbLine
 10
114.0
 20
220.0
 30
0.0
 11
60.0
 21
220.0
 31
0.0
 39
0.0
210
0.0
220
0.0
230
1.0
  0
LINE
  5
AF
330
40
100
AcDbEntity
  8
0
  6
ByLayer
 62
256
 48
1.0
 60
0
 67
0
370
-1
100
AcDbLine
 10
60.0
 20
220.0
 30
0.0
 11
60.0
 21
135.0
 31
0.0
 39
0.0
210
0.0
220
0.0
230
1.0
  0
TEXT
  5
B0
330
40
100
AcDbEntity
  8
0
  6
ByLayer
 62
256
 48
1.0
 60
0
 67
0
370
-1
100
AcDbText
  1
3x25A
 10
62.0
 20
173.5
 30
0.0
 40
9.0
  7
Standard
 11
0.0
 21
0.0
 31
0.0
210
0.0
220
0.0
230
1.0
100
AcDbText
  0
LINE
  5
B1
330
40
100
AcDbEntity
  8
0
  6
ByLayer
 62
256
 48
1.0
 60
0
 67
0
370
-1
100
AcDbLine
 10
114.0
 20
135.0
 30
0.0
 11
168.0
 21
135.0
 31
0.0
 39
0.0
210
0.0
220
0.0
230
1.0
  0
LINE
  5
B2
330
40
100
AcDbEntity
  8
0
  6
ByLayer
 62
256
 48
1.0
 60
0
 67
0
370
-1
100
AcDbLine
 10
168.0
 20
135.0
 30
0.0
 11
168.0
 21
220.0
 31
0.0
 39
0.0
210
0.0
220
0.0
230
1.0
  0
LINE
  5
B3
330
40
100
AcDbEntity
  8
0
  6
ByLayer
 62
256
 48
1.0
 60
0
 67
0
370
-1
100
AcDbLine
 10
168.0
 20
220.0
 30
0.0
 11
114.0
 21
220.0
 31
0.0
 39
0.0
210
0.0
220
0.0
230
1.0
  0
LINE
  5
B4
330
40
100
AcDbEntity
  8
0
  6
ByLayer
 62
256
 48
1.0
 60
0
 67
0
370
-1
100
AcDbLine
 10
114.0
 20
220.0
 30
0.0
 11
114.0
 21
135.0
 31
0.0
 39
0.0
210
0.0
220
0.0
230
1.0
  0
TEXT
  5
B5
330
40
100
AcDbEntity
  8
0
  6
ByLayer
 62
256
 48
1.0
 60
0
 67
0
370
-1
100
AcDbText
  1
3x1000A
 10
116.0
 20
173.5
 30
0.0
 40
9.0
  7
Standard
 11
0.0
 21
0.0
 31
0.0
210
0.0
220
0.0
230
1.0
100
AcDbText
  0
LINE
  5
B6
330
40
100
AcDbEntity
  8
0
  6
ByLayer
 62
256
 48
1.0
 60
0
 67
0
370
-1
100
AcDbLine
 10
168.0
 20
135.0
 30
0.0
 11
222.0
 21
135.0
 31
0.0
 39
0.0
210
0.0
220
0.0
230
1.0
  0
LINE
  5
B7
330
40
100
AcDbEntity
  8
0
  6
ByLayer
 62
256
 48
1.0
 60
0
 67
0
370
-1
100
AcDbLine
 10
222.0
 20
135.0
 30
0.0
 11
222.0
 21
220.0
 31
0.0
 39
0.0
210
0.0
220
0.0
230
1.0
  0
LINE
  5
B8
330
40
100
AcDbEntity
  8
0
  6
ByLayer
 62
256
 48
1.0
 60
0
 67
0
370
-1
100
AcDbLine
 10
222.0
 20
220.0
 30
0.0
 11
168.0
 21
220.0
 31
0.0
 39
0.0
210
0.0
220
0.0
230
1.0
  0
LINE
  5
B9
330
40
100
AcDbEntity
  8
0
  6
ByLayer
 62
256
 48
1.0
 60
0
 67
0
370
-1
100
AcDbLine
 10
168.0
 20
220.0
 30
0.0
 11
168.0
 21
135.0
 31
0.0
 39
0.0
210
0.0
220
0.0
230
1.0
  0
TEXT
  5
BA
330
40
100
AcDbEntity
  8
0
  6
ByLayer
 62
256
 48
1.0
 60
0
 67
0
370
-1
100
AcDbText
  1
3x600A
 10
170.0
 20
173.5
 30
0.0
 40
9.0
  7
Standard
 11
0.0
 21
0.0
 31
0.0
210
0.0
220
0.0
230
1.0
100
AcDbText
  0
LINE
  5
BB
330
40
100
AcDbEntity
  8
0
  6
ByLayer
 62
256
 48
1.0
 60
0
 67
0
370
-1
100
AcDbLine
 10
222.0
 20
135.0
 30
0.0
 11
276.0
 21
135.0
 31
0.0
 39
0.0
210
0.0
220
0.0
230
1.0
  0
LINE
  5
BC
330
40
100
AcDbEntity
  8
0
  6
ByLayer
 62
256
 48
1.0
 60
0
 67
0
370
-1
100
AcDbLine
 10
276.0
 20
135.0
 30
0.0
 11
276.0
 21
220.0
 31
0.0
 39
0.0
210
0.0
220
0.0
230
1.0
  0
LINE
  5
BD
330
40
100
AcDbEntity
  8
0
  6
ByLayer
 62
256
 48
1.0
 60
0
 67
0
370
-1
100
AcDbLine
 10
276.0
 20
220.0
 30
0.0
 11
222.0
 21
220.0
 31
0.0
 39
0.0
210
0.0
220
0.0
230
1.0
  0
LINE
  5
BE
330
40
100
AcDbEntity
  8
0
  6
ByLayer
 62
256
 48
1.0
 60
0
 67
0
370
-1
100
AcDbLine
 10
222.0
 20
220.0
 30
0.0
 11
222.0
 21
135.0
 31
0.0
 39
0.0
210
0.0
220
0.0
230
1.0
  0
TEXT
  5
BF
330
40
100
AcDbEntity
  8
0
  6
ByLayer
 62
256
 48
1.0
 60
0
 67
0
370
-1
100
AcDbText
  1
3x16A
 10
224.0
 20
173.5
 30
0.0
 40
9.0
  7
Standard
 11
0.0
 21
0.0
 31
0.0
210
0.0
220
0.0
230
1.0
100
AcDbText
  0
LINE
  5
C0
330
40
100
AcDbEntity
  8
0
  6
ByLayer
 62
256
 48
1.0
 60
0
 67
0
370
-1
100
AcDbLine
 10
276.0
 20
135.0
 30
0.0
 11
330.0
 21
135.0
 31
0.0
 39
0.0
210
0.0
220
0.0
230
1.0
  0
LINE
  5
C1
330
40
100
AcDbEntity
  8
0
  6
ByLayer
 62
256
 48
1.0
 60
0
 67
0
370
-1
100
AcDbLine
 10
330.0
 20
135.0
 30
0.0
 11
330.0
 21
220.0
 31
0.0
 39
0.0
210
0.0
220
0.0
230
1.0
  0
LINE
  5
C2
330
40
100
AcDbEntity
  8
0
  6
ByLayer
 62
256
 48
1.0
 60
0
 67
0
370
-1
100
AcDbLine
 10
330.0
 20
220.0
 30
0.0
 11
276.0
 21
220.0
 31
0.0
 39
0.0
210
0.0
220
0.0
230
1.0
  0
LINE
  5
C3
330
40
100
AcDbEntity
  8
0
  6
ByLayer
 62
256
 48
1.0
 60
0
 67
0
370
-1
100
AcDbLine
 10
276.0
 20
220.0
 30
0.0
 11
276.0
 21
135.0
 31
0.0
 39
0.0
210
0.0
220
0.0
230
1.0
  0
TEXT
  5
C4
330
40
100
AcDbEntity
  8
0
  6
ByLayer
 62
256
 48
1.0
 60
0
 67
0
370
-1
100
AcDbText
  1
3x1000A
 10
278.0
 20
173.5
 30
0.0
 40
9.0
  7
Standard
 11
0.0
 21
0.0
 31
0.0
210
0.0
220
0.0
230
1.0
100
AcDbText
  0
LINE
  5
C5
330
40
100
AcDbEntity
  8
0
  6
ByLayer
 62
256
 48
1.0
 60
0
 67
0
370
-1
100
AcDbLine
 10
330.0
 20
135.0
 30
0.0
 11
384.0
 21
135.0
 31
0.0
 39
0.0
210
0.0
220
0.0
230
1.0
  0
LINE
  5
C6
330
40
100
AcDbEntity
  8
0
  6
ByLayer
 62
256
 48
1.0
 60
0
 67
0
370
-1
100
AcDbLine
 10
384.0
 20
135.0
 30
0.0
 11
384.0
 21
220.0
 31
0.0
 39
0.0
210
0.0
220
0.0
230
1.0
  0
LINE
  5
C7
330
40
100
AcDbEntity
  8
0
  6
ByLayer
 62
256
 48
1.0
 60
0
 67
0
370
-1
100
AcDbLine
 10
384.0
 20
220.0
 30
0.0
 11
330.0
 21
220.0
 31
0.0
 39
0.0
210
0.0
220
0.0
230
1.0
  0
LINE
  5
C8
330
40
100
AcDbEntity
  8
0
  6
ByLayer
 62
256
 48
1.0
 60
0
 67
0
370
-1
100
AcDbLine
 10
330.0
 20
220.0
 30
0.0
 11
330.0
 21
135.0
 31
0.0
 39
0.0
210
0.0
220
0.0
230
1.0
  0
TEXT
  5
C9
330
40
100
AcDbEntity
  8
0
  6
ByLayer
 62
256
 48
1.0
 60
0
 67
0
370
-1
100
AcDbText
  1
3x250A
 10
332.0
 20
173.5
 30
0.0
 40
9.0
  7
Standard
 11
0.0
 21
0.0
 31
0.0
210
0.0
220
0.0
230
1.0
100
AcDbText
  0
LINE
  5
CA
330
40
100
AcDbEntity
  8
0
  6
ByLayer
 62
256
 48
1.0
 60
0
 67
0
370
-1
100
AcDbLine
 10
384.0
 20
135.0
 30
0.0
 11
438.0
 21
135.0
 31
0.0
 39
0.0
210
0.0
220
0.0
230
1.0
  0
LINE
  5
CB
330
40
100
AcDbEntity
  8
0
  6
ByLayer
 62
256
 48
1.0
 60
0
 67
0
370
-1
100
AcDbLine
 10
438.0
 20
135.0
 30
0.0
 11
438.0
 21
220.0
 31
0.0
 39
0.0
210
0.0
220
0.0
230
1.0
  0
LINE
  5
CC
330
40
100
AcDbEntity
  8
0
  6
ByLayer
 62
256
 48
1.0
 60
0
 67
0
370
-1
100
AcDbLine
 10
438.0
 20
220.0
 30
0.0
 11
384.0
 21
220.0
 31
0.0
 39
0.0
210
0.0
220
0.0
230
1.0
  0
LINE
  5
CD
330
40
100
AcDbEntity
  8
0
  6
ByLayer
 62
256
 48
1.0
 60
0
 67
0
370
-1
100
AcDbLine
 10
384.0
 20
220.0
 30
0.0
 11
384.0
 21
135.0
 31
0.0
 39
0.0
210
0.0
220
0.0
230
1.0
  0
TEXT
  5
CE
330
40
100
AcDbEntity
  8
0
  6
ByLayer
 62
256
 48
1.0
 60
0
 67
0
370
-1
100
AcDbText
  1
3x200A
 10
386.0
 20
173.5
 30
0.0
 40
9.0
  7
Standard
 11
0.0
 21
0.0
 31
0.0
210
0.0
220
0.0
230
1.0
100
AcDbText
  0
TEXT
  5
CF
330
40
100
AcDbEntity
  8
0
  6
ByLayer
 62
256
 48
1.0
 60
0
 67
0
370
-1
100
AcDbText
  1
DAĞITIM PANOSU - ÖN GÖRÜNÜM (üretildi)
 10
0.0
 20
670.0
 30
0.0
 40
28.0
  7
Standard
 11
0.0
 21
0.0
 31
0.0
210
0.0
220
0.0
230
1.0
100
AcDbText
  0
TEXT
  5
D0
330
40
100
AcDbEntity
  8
0
  6
ByLayer
 62
256
 48
1.0
 60
0
 67
0
370
-1
100
AcDbText
  1
552 x 630 mm  ·  3 ray  ·  24 cihaz
 10
0.0
 20
642.0
 30
0.0
 40
18.0
  7
Standard
 11
0.0
 21
0.0
 31
0.0
210
0.0
220
0.0
230
1.0
100
AcDbText
  0
VIEWPORT
  5
47
330
44
100
AcDbEntity
  8
0
  6
ByLayer
 62
256
 48
1.0
 60
0
 67
1
370
-1
100
AcDbViewport
 10
148.5
 20
105.0
 30
0.0
 40
297.0
 41
210.0
 68
1
 69
1
 12
0.0
 22
0.0
 13
0.0
 23
0.0
 14
0.0
 24
0.0
 15
0.0
 25
0.0
 16
0.0
 26
0.0
 36
1.0
 17
0.0
 27
0.0
 37
0.0
 42
0.0
 43
0.0
 44
0.0
 45
0.0
 50
0.0
 51
0.0
 72
0
 90
0
110
0.0
120
0.0
130
0.0
111
1.0
121
0.0
131
0.0
112
0.0
122
1.0
132
0.0
  0
ENDSEC
  0
SECTION
  2
OBJECTS
  0
DICTIONARY
  5
A
330
0
100
AcDbDictionary
280
0
281
0
  3
ACAD_COLOR
350
B
  3
ACAD_GROUP
350
C
  3
ACAD_LAYOUT
350
D
  0
DICTIONARY
  5
B
330
A
100
AcDbDictionary
280
0
281
0
  0
DICTIONARY
  5
C
330
A
100
AcDbDictionary
280
0
281
0
  0
DICTIONARY
  5
D
330
A
100
AcDbDictionary
280
0
281
0
  3
Model
350
3F
  3
Layout1
350
43
  0
LAYOUT
  5
3F
330
D
100
AcDbPlotSettings
  1
none_device
  4
ISO_A4_(210.00_x_297.00_MM)
 40
0.0
 41
0.0
 42
0.0
 43
0.0
 44
297.0
 45
210.0
 46
0.0
 47
0.0
 48
0.0
 49
0.0
140
0.0
141
0.0
142
1.0
143
1.0
 70
688
 72
1
 73
0
 74
1
 75
0
 76
0
 77
0
 78
300
147
1.0
148
0.0
149
0.0
100
AcDbLayout
  1
Model
 71
0
 10
-20.0
 20
-7.5
 11
277.0
 21
202.5
 12
0.0
 22
0.0
 32
0.0
 13
0.0
 23
0.0
 33
0.0
 14
25.7
 24
19.5
 34
0.0
 15
231.3
 25
175.5
 35
0.0
 16
1.0
 26
0.0
 36
0.0
 17
0.0
 27
1.0
 37
0.0
146
0.0
 76
0
330
40
  0
LAYOUT
  5
43
330
D
100
AcDbPlotSettings
  1
none_device
  4
ISO_A4_(210.00_x_297.00_MM)
 40
0.0
 41
0.0
 42
0.0
 43
0.0
 44
297.0
 45
210.0
 46
0.0
 47
0.0
 48
0.0
 49
0.0
140
0.0
141
0.0
142
1.0
143
1.0
 70
688
 72
1
 73
0
 74
1
 75
0
 76
0
 77
0
 78
300
147
1.0
148
0.0
149
0.0
100
AcDbLayout
  1
Layout1
 71
1
 10
-20.0
 20
-7.5
 11
277.0
 21
202.5
 12
0.0
 22
0.0
 32
0.0
 13
0.0
 23
0.0
 33
0.0
 14
25.7
 24
19.5
 34
0.0
 15
231.3
 25
175.5
 35
0.0
 16
1.0
 26
0.0
 36
0.0
 17
0.0
 27
1.0
 37
0.0
146
0.0
 76
0
330
44
  0
ENDSEC
  0
EOF
